<svg xmlns="http://www.w3.org/2000/svg" viewBox="0 0 1711.85 967.07"><title>header</title><g id="Line3"><path d="M150.83,364.62c17.75-30.69,46.32-54.54,73.92-76.05,31.1-24.23,64-46.08,96.12-68.85A664.79,664.79,0,0,0,395,159.3c21.19-20.09,42-40.8,66.14-57.45,64.82-44.78,149.61-51.69,226-44.72,91.55,8.36,179.74,41.65,257.17,90.63a631.49,631.49,0,0,1,54.48,38.41c16.33,12.94,31.9,26.82,48.39,39.57,27.3,21.11,58.41,39.48,93.85,40.09,24.41.42,48.66-5.46,72.07-11.79,29.66-8,58.9-17.5,88.65-25.23,71.59-18.61,145.81-25.65,217.79-4.68,65.78,19.16,123.67,58.25,172.64,105.43,44.68,43,84.68,94.1,106.68,152.63,11.74,31.24,17.83,64.69,15.36,98.09-2.82,38-16.85,74-38,105.49-45.48,67.78-117.53,113.55-190.62,146.69-62.73,28.44-128.77,48.33-195.1,66.37C1320,918,1250.24,939,1177.42,947.91a720.57,720.57,0,0,1-189-2.06c-49.63-7-98.49-18.67-148.2-25.11-52.91-6.85-106-6-158.43,4.62-32.34,6.54-63.42,17.78-95.71,24.5a412,412,0,0,1-100.22,8.78,340.52,340.52,0,0,1-191.64-68.32C223.48,837,171.4,758.28,138.19,676.9c-29.2-71.57-41.83-151.08-22.94-227a302.27,302.27,0,0,1,35.92-85.17c.55-.9-.86-1.27-1.34-.5C114.47,421.8,99.89,489,105.91,556.15c7.93,88.37,47.8,173.79,99.57,244.86C250,862.18,309,913.31,380.62,939.68c62.23,22.92,129.93,25.76,194.82,13.85,33.62-6.17,65.75-17.8,99.1-25a461.71,461.71,0,0,1,88.74-10.69c51.16-1,101.43,7.76,151.51,17.13,54.84,10.25,109.73,19.19,165.65,20,78.86,1.12,157.16-12.16,233-32.89,60-16.38,120.43-32.23,179.4-51.92,71.57-23.91,142.63-54.32,203.28-99.92C1757,724.4,1809.61,659.52,1815.81,581c5.18-65.6-22.42-128.6-59.89-180.94a527.38,527.38,0,0,0-111.25-113.52c-67.05-50.42-146.81-79.76-231.15-77-66.77,2.18-129.6,23.24-193.31,41-25.51,7.13-52.08,14.19-78.78,13.74-39.62-.66-73.25-23.5-103-47.56-16.56-13.4-32.55-27.48-49.62-40.24a675.88,675.88,0,0,0-58.48-39.13A619.23,619.23,0,0,0,808,81.2c-83.6-27.63-177.25-37.47-263.62-17-30.58,7.25-59.51,19.61-85.27,37.68-23.61,16.57-44.13,37-65,56.76-25.14,23.88-51.88,44.84-80.21,64.79-32.6,22.95-65.78,45.19-96.87,70.19-25.12,20.19-50.58,42.53-66.86,70.75-.26.45.44.63.66.24Z" transform="translate(-104.59 -53.3)"/></g><g id="Line2"><path d="M222.94,577.43c6.55-67.21,19.94-135,49.63-196.17a359.78,359.78,0,0,1,94.19-119.71c38.41-31.88,82.18-56.48,126.46-79.16,42.12-21.58,87.66-33.45,134.35-40.39,58.41-8.69,118.68-9.86,177-.1,55.89,9.35,112.4,29.74,153.82,69.74,23.35,22.54,48.21,42.66,78.48,55.13,24.68,10.17,51.17,14.62,77.79,14.83,57.78.47,114.39-15.51,171.5-22.1,33.33-3.85,67-4.94,100.39-1.35,30.05,3.22,59.16,10.76,88,19.51,44.69,13.55,88.73,30.91,127.75,56.93,43.69,29.14,79,69.17,99.36,117.85,21.61,51.75,28.76,112.08,18.56,167.33a337,337,0,0,1-68.12,148.61,301.22,301.22,0,0,1-71,64.33c-29.28,18.94-62,31-94.34,43.69-145,56.83-295.39,102.88-449.63,126.47-156.4,23.93-320,24.73-472-23.79-72.61-23.18-144.53-55.52-201.65-107-28.88-26-53-57.47-75.39-89.14-21.41-30.34-40.4-62.79-52.43-98.06a255,255,0,0,1-12.4-107.49c.1-1-1.55-.64-1.64.26a256.69,256.69,0,0,0,13.19,110c12.23,35,31.2,67.14,52.54,97.25,21.8,30.76,45.25,61.31,73.15,86.82,28.25,25.82,60.52,46.94,94.47,64.47,141,72.8,304.72,91.79,461.33,81.59,160.71-10.46,318.76-50.15,470.51-102.79q53.85-18.67,106.86-39.65c32.35-12.76,64.64-25.24,93.58-44.86,49.64-33.64,87.88-82.3,111.86-137,20.37-46.52,30-95.83,26.08-146.52-4.5-58.48-23.76-115.4-61.85-160.62-31.72-37.64-73.64-64.89-118.35-84.68a597,597,0,0,0-65.71-24.19c-26.54-8.19-53.37-15.59-80.93-19.41-65.9-9.12-130.59,2-195.47,12.93-56.91,9.56-116,16.42-170.38-7.84a212.78,212.78,0,0,1-42.77-25.78c-13.13-10.08-24.38-22-36.74-32.93-21.11-18.67-45.9-32.82-72-43.25C825.67,139,764.59,132.5,705.33,133.94c-53.58,1.3-107.83,8.88-159,25-21.29,6.71-41,15.84-60.8,26.1-22.28,11.57-44.31,23.67-65.57,37-41.78,26.24-80.3,57.78-110.43,97.11-34.61,45.18-56.76,98.37-70.29,153.38-8.48,34.48-13.75,69.67-17.14,105C222,578.12,222.89,577.91,222.94,577.43Z" transform="translate(-104.59 -53.3)"/></g><g id="Line1"><path d="M218.45,331.85c29-49.79,77.09-85.61,127.4-111.93,53.59-28,112-46.92,171.1-59.22,50.72-10.56,103.39-17.13,155.26-14.16,73.62,4.23,141.49,38.49,207.64,68,63.86,28.54,133.2,58.89,204.83,53.08,67.67-5.48,130.69-37.18,195-56.41s136.17-18,200.26,1.47c66.57,20.2,124.7,60.55,173.88,109,53.16,52.41,94.39,114.88,114.06,187.45s15.51,150-18.51,217.64c-18.42,36.66-43.61,69.47-70.93,99.9-21.05,23.44-43.73,44.43-71,60.5-64.66,38.16-137.38,61.49-210.83,75.52a824.55,824.55,0,0,1-113.9,13.85c-41.11,2-82.3-.46-123.43-.58-85.74-.23-171.52,3.19-257.22-.71a1179.16,1179.16,0,0,1-131.29-12.88c-25.11-4-50-9-75.13-13.25-43.95-7.36-88-14.41-131.5-24.06-96.81-21.45-194.3-55.93-268.79-123.75-41.49-37.78-73.55-84.77-94.56-136.75-27.48-68-40.07-144.76-26.27-217.35,7.75-40.74,23.59-79.47,44.35-115.27,1.09-1.88-1.83-2.65-2.78-1-21.39,36.91-37.75,76.49-45.39,118.6-6.84,37.72-6.67,76.28-1,114.14,9.43,63,31.74,125,68.15,177.58,60,86.6,154,138.25,252.93,168.33,46.28,14.07,93.73,23.9,141.33,32.28,47.35,8.34,94.81,17.2,142.31,24.52,88,13.56,177,14.64,265.84,13.79,44.42-.42,88.83-1.17,133.25-.82,39.82.31,79.53,2.41,119.32-.11,78-4.93,156.47-20.43,229.61-48.16,32-12.13,63.67-26.9,92.76-45,27.34-17,49.91-39.47,71-63.54,51-58.06,90.6-125.08,96.35-203.6,5.34-72.95-15.92-146.52-53.13-208.93-18.83-31.58-42.16-59.68-68-85.75s-53.77-49.79-84.46-69.71c-56.12-36.43-120.48-57.9-187.53-59.84-33.27-1-67.47,1.68-99.67,10.39-32.8,8.87-64.55,21.35-96.67,32.34-33.82,11.57-68.57,23-104.3,26.62-37.24,3.8-74.8-3.17-110.29-14.15-73.86-22.87-141.12-62.52-214.27-87.28-31.47-10.65-63.82-18.05-97.08-19.4a525.91,525.91,0,0,0-74.66,2.78A734.59,734.59,0,0,0,420.18,185c-55.43,19.82-110,46.9-154.19,86.43-19.35,17.33-36.39,37.19-49.44,59.7C215.81,332.44,217.8,333,218.45,331.85Z" transform="translate(-104.59 -53.3)"/></g></svg>