<svg xmlns="http://www.w3.org/2000/svg" viewBox="0 0 445.1 401.41"><defs><style>.cls-1{fill:#868686;}</style></defs><title>Asset 4</title><g id="Layer_2" data-name="Layer 2"><g id="svg23"><path class="cls-1" d="M101.16,121.16c11.17,0,18.23,9.05,18.23,20.23V303.25c0,11.17-7.06,20.23-18.23,20.23s-18.23-9.06-18.23-20.23V141.39C82.93,130.21,90,121.16,101.16,121.16Zm107.09,32.91,76.36-75.38H60.7c-11.18,0-22.24,11.06-22.24,22.23V343.71c0,11.17,11.06,20.23,22.24,20.23H384.41a20.23,20.23,0,0,0,20.23-20.23V181.85c0-11.17,8.06-20.23,19.23-20.23s19.24,9.06,19.24,20.23V343.71c0,33.52-25.18,57.7-58.7,57.7H60.7c-33.53,0-60.7-24.18-60.7-57.7V100.92C0,67.4,27.17,43.23,60.7,43.23H319.07L356.61,5.69a20.82,20.82,0,0,1,28.61,0l54,54a20.23,20.23,0,0,1,0,28.61L290.8,236.62a20.22,20.22,0,0,1-14.31,5.93H222.55a20.23,20.23,0,0,1-20.23-20.23V168.38A20.22,20.22,0,0,1,208.25,154.07Zm30.54,52h28.33L402.27,71,374.92,42.6,238.79,178.75Z"/></g></g></svg>