<svg xmlns="http://www.w3.org/2000/svg" viewBox="0 0 570.1 492.43"><defs><style>.cls-1{fill:none;stroke:#868686;stroke-linecap:round;stroke-linejoin:round;stroke-width:37.5px;}</style></defs><title>Asset 5</title><g id="Layer_2" data-name="Layer 2"><g id="svg23"><path id="path3" class="cls-1" d="M318.34,262.86h91.25A141.76,141.76,0,0,0,551.35,121.1v0A35.75,35.75,0,0,0,515.6,85.33H54.5a35.75,35.75,0,0,0-35.75,35.75v0A141.76,141.76,0,0,0,160.51,262.86h91.25"/><path id="path5" class="cls-1" d="M29.85,185.19V428.36a45.31,45.31,0,0,0,45.32,45.32H494.93a45.31,45.31,0,0,0,45.33-45.32V185.19"/><path id="path7" class="cls-1" d="M418.2,85.33V40.71a22,22,0,0,0-22-22H173.86a22,22,0,0,0-22,22V85.33"/><path id="path9" class="cls-1" d="M318.34,251.76a33.29,33.29,0,0,0-33.29-33.28h0a33.27,33.27,0,0,0-33.27,33.26v33.31a33.29,33.29,0,1,0,66.58,0Z"/></g></g></svg>